@startuml
abstract class	type	 #red	
type	 --|> 	real_type	
type_decl	 --|> 	type	
abstract class	name	 #red	
name	 --|> 	type_decl	
real_type	 --|> 	name	
abstract class	size	 #red	
size	 --|> 	integer_cst	
real_type	 --|> 	size	
abstract class	retn	 #red	
retn	 --|> 	real_type	
function_type	 --|> 	retn	
abstract class	valu	 #red	
valu	 --|> 	real_type	
tree_list	 --|> 	valu	
modify_expr	 --|> 	type	
result_decl	 --|> 	type	
call_expr	 --|> 	type	
abstract class	ptd	 #red	
ptd	 --|> 	real_type	
pointer_type	 --|> 	ptd	
abstract class	value	 #red	
value	 --|> 	real_type	
integer_cst	 --|> 	value	
field_decl	 --|> 	type	
abstract class	unql	 #red	
unql	 --|> 	real_type	
real_type	 --|> 	unql	
component_ref	 --|> 	type	
real_cst	 --|> 	type	
var_decl	 --|> 	type	
rdiv_expr	 --|> 	type	
float_expr	 --|> 	type	
@enduml
