@startuml
abstract class	elts	 #red	
elts	 --|> 	record_type	
array_type	 --|> 	elts	
abstract class	name	 #red	
name	 --|> 	type_decl	
record_type	 --|> 	name	
abstract class	size	 #red	
size	 --|> 	integer_cst	
record_type	 --|> 	size	
abstract class	flds	 #red	
flds	 --|> 	field_decl	
record_type	 --|> 	flds	
abstract class	type	 #red	
type	 --|> 	record_type	
type_decl	 --|> 	type	
abstract class	scpe	 #red	
scpe	 --|> 	record_type	
field_decl	 --|> 	scpe	
name	 --|> 	identifier_node	
abstract class	unql	 #red	
unql	 --|> 	record_type	
record_type	 --|> 	unql	
abstract class	value	 #red	
value	 --|> 	record_type	
integer_cst	 --|> 	value	
field_decl	 --|> 	type	
abstract class	ptd	 #red	
ptd	 --|> 	record_type	
pointer_type	 --|> 	ptd	
abstract class	retn	 #red	
retn	 --|> 	record_type	
function_type	 --|> 	retn	
indirect_ref	 --|> 	type	
abstract class	valu	 #red	
valu	 --|> 	record_type	
tree_list	 --|> 	valu	
component_ref	 --|> 	type	
var_decl	 --|> 	type	
array_ref	 --|> 	type	
modify_expr	 --|> 	type	
compound_literal_expr	 --|> 	type	
@enduml
